# xmcd CD database file
#
# Track frame offsets:
#	150
#	4770
#	12157
#	16007
#	23467
#	27285
#	34327
#	38137
#	45597
#	49472
#	56825
#	60610
#	67975
#	71782
#	79150
#	82952
#	90320
#	94147
#	101510
#	105385
#	112740
#	116540
#	124005
#	131480
#	138960
#	146417
#	153880
#	161340
#	168815
#	176300
#	183775
#	191252
#	197767
#	204297
#	210805
#	217325
#	223815
#	230345
#	236867
#	243417
#	249917
#	256497
#	263890
#	271367
#	278717
#	286200
#	293530
#	301000
#	308347
#	315817
#	323145
#
# Disc length: 4407 seconds
#
# Revision: 0
# Processed by: cddbd v1.5.1PL0 Copyright (c) Steve Scherf et al.
# Submitted via: CDex 1.50
#
DISCID=9e113533
DTITLE=Paul Meader and Robin Nolan - Gypsy Jazz Licks - Volume 1
DYEAR=2003
DGENRE=Jazz
TTITLE0=Tuning
TTITLE1=Minor Swing Changes - Lick 1 (slow)
TTITLE2=Minor Swing Changes - Lick 1 (fast)
TTITLE3=Minor Swing Changes - Lick 2 (slow)
TTITLE4=Minor Swing Changes - Lick 2 (fast)
TTITLE5=Minor Swing Changes - Lick 3 (slow)
TTITLE6=Minor Swing Changes - Lick 3 (fast)
TTITLE7=Minor Swing Changes - Lick 4 (slow)
TTITLE8=Minor Swing Changes - Lick 4 (fast)
TTITLE9=Minor Swing Changes - Lick 5 (slow)
TTITLE10=Minor Swing Changes - Lick 5 (fast)
TTITLE11=Dark Eyes Changes - Lick 1 (slow)
TTITLE12=Dark Eyes Changes - Lick 1 (fast)
TTITLE13=Dark Eyes Changes - Lick 2 (slow)
TTITLE14=Dark Eyes Changes - Lick 2 (fast)
TTITLE15=Dark Eyes Changes - Lick 3 (slow)
TTITLE16=Dark Eyes Changes - Lick 3 (fast)
TTITLE17=Dark Eyes Changes - Lick 4 (slow)
TTITLE18=Dark Eyes Changes - Lick 4 (fast)
TTITLE19=Dark Eyes Changes - Lick 5 (slow)
TTITLE20=Dark Eyes Changes - Lick 5 (fast)
TTITLE21=Douce Ambience Changes - Lick 1 (slow)
TTITLE22=Douce Ambience Changes - Lick 1 (fast)
TTITLE23=Douce Ambience Changes - Lick 2 (slow)
TTITLE24=Douce Ambience Changes - Lick 2 (fast)
TTITLE25=Douce Ambience Changes - Lick 3 (slow)
TTITLE26=Douce Ambience Changes - Lick 3 (fast)
TTITLE27=Douce Ambience Changes - Lick 4 (slow)
TTITLE28=Douce Ambience Changes - Lick 4 (fast)
TTITLE29=Douce Ambience Changes - Lick 5 (slow)
TTITLE30=Douce Ambience Changes - Lick 5 (fast)
TTITLE31=Djangology Changes - Lick 1 (slow)
TTITLE32=Djangology Changes - Lick 1 (fast)
TTITLE33=Djangology Changes - Lick 2 (slow)
TTITLE34=Djangology Changes - Lick 2 (fast)
TTITLE35=Djangology Changes - Lick 3 (slow)
TTITLE36=Djangology Changes - Lick 3 (fast)
TTITLE37=Djangology Changes - Lick 4 (slow)
TTITLE38=Djangology Changes - Lick 4 (fast)
TTITLE39=Djangology Changes - Lick 5 (slow)
TTITLE40=Djangology Changes - Lick 5 (fast)
TTITLE41=Sweet Georgia Brown Changes - Lick 1 (slow)
TTITLE42=Sweet Georgia Brown Changes - Lick 1 (fast)
TTITLE43=Sweet Georgia Brown Changes - Lick 2 (slow)
TTITLE44=Sweet Georgia Brown Changes - Lick 2 (fast)
TTITLE45=Sweet Georgia Brown Changes - Lick 3 (slow)
TTITLE46=Sweet Georgia Brown Changes - Lick 3 (fast)
TTITLE47=Sweet Georgia Brown Changes - Lick 4 (slow)
TTITLE48=Sweet Georgia Brown Changes - Lick 4 (fast)
TTITLE49=Sweet Georgia Brown Changes - Lick 5 (slow)
TTITLE50=Sweet Georgia Brown Changes - Lick 5 (fast)
EXTD=YEAR: 2003
EXTT0=
EXTT1=
EXTT2=
EXTT3=
EXTT4=
EXTT5=
EXTT6=
EXTT7=
EXTT8=
EXTT9=
EXTT10=
EXTT11=
EXTT12=
EXTT13=
EXTT14=
EXTT15=
EXTT16=
EXTT17=
EXTT18=
EXTT19=
EXTT20=
EXTT21=
EXTT22=
EXTT23=
EXTT24=
EXTT25=
EXTT26=
EXTT27=
EXTT28=
EXTT29=
EXTT30=
EXTT31=
EXTT32=
EXTT33=
EXTT34=
EXTT35=
EXTT36=
EXTT37=
EXTT38=
EXTT39=
EXTT40=
EXTT41=
EXTT42=
EXTT43=
EXTT44=
EXTT45=
EXTT46=
EXTT47=
EXTT48=
EXTT49=
EXTT50=
PLAYORDER=
